<?xml version="1.0" standalone="no"?>
<!DOCTYPE svg PUBLIC "-//W3C//DTD SVG 20010904//EN"
 "http://www.w3.org/TR/2001/REC-SVG-20010904/DTD/svg10.dtd">
<svg version="1.0" xmlns="http://www.w3.org/2000/svg"
 width="2560.000000pt" height="838.000000pt" viewBox="0 0 2560.000000 838.000000"
 preserveAspectRatio="xMidYMid meet">

<g transform="translate(0.000000,838.000000) scale(0.100000,-0.100000)"
fill="#000000" stroke="none">
<path d="M5980 8374 c-95 -12 -211 -38 -293 -65 -124 -42 -303 -135 -410 -215
-49 -37 -280 -251 -515 -478 -397 -382 -2417 -2327 -4047 -3895 -385 -370
-701 -678 -703 -682 -2 -5 1575 -9 3628 -9 l3633 0 -6 33 c-3 17 -15 107 -28
199 l-22 168 -3113 2 -3112 3 2209 2130 c1215 1172 2239 2156 2276 2188 117
101 246 168 407 210 67 17 109 21 236 21 135 -1 168 -4 255 -27 120 -32 313
-125 407 -197 226 -171 395 -426 468 -705 63 -242 322 -2071 615 -4350 216
-1675 255 -1970 275 -2045 28 -102 109 -261 173 -340 131 -161 320 -264 532
-290 195 -25 403 27 586 144 51 33 140 115 285 260 451 451 2954 2985 2954
2990 0 3 -907 6 -2015 6 l-2015 0 0 -24 c0 -23 31 -253 45 -333 l6 -33 1525 0
c896 0 1524 -4 1522 -9 -5 -14 -2405 -2430 -2467 -2484 -67 -58 -146 -106
-227 -137 -89 -36 -218 -34 -297 2 -73 35 -162 123 -209 208 -83 150 -53 -46
-513 3372 -233 1740 -434 3198 -445 3240 -152 578 -608 1009 -1190 1123 -82
16 -339 28 -410 19z"/>
<path d="M11935 6868 c-5 -17 -335 -1727 -335 -1739 0 -5 217 -9 545 -9 300 0
545 2 545 4 0 2 13 75 30 162 16 88 30 160 30 162 0 1 -171 2 -380 2 -209 0
-380 3 -379 8 0 4 17 93 38 197 l37 190 372 3 372 2 5 23 c3 12 18 86 34 165
l28 142 -374 0 c-296 0 -374 3 -370 13 2 6 19 90 37 184 l33 173 380 2 381 3
26 130 c15 72 29 145 33 163 l7 32 -546 0 c-427 0 -546 -3 -549 -12z"/>
<path d="M15665 6858 c-3 -7 -79 -389 -171 -848 -91 -459 -168 -845 -171 -858
l-5 -22 168 2 168 3 61 305 61 305 129 0 130 0 68 -225 c37 -124 79 -262 93
-307 l25 -83 184 0 183 0 -104 313 c-57 171 -102 317 -100 322 2 6 29 18 59
28 169 53 320 234 362 432 59 281 -56 522 -293 614 l-67 26 -388 3 c-313 3
-388 1 -392 -10z m694 -338 c79 -40 117 -114 108 -210 -6 -66 -32 -122 -79
-167 -64 -62 -90 -67 -332 -71 -179 -3 -218 -1 -214 10 3 7 25 113 49 236 l43
222 194 0 c172 0 197 -2 231 -20z"/>
<path d="M17901 6793 c-21 -43 -224 -437 -450 -877 -226 -439 -411 -800 -411
-802 0 -2 84 -4 188 -4 l188 0 74 150 74 150 317 0 317 0 6 -27 c3 -16 10 -71
16 -123 6 -52 13 -107 16 -122 l6 -28 169 0 c93 0 169 3 169 8 0 4 -54 394
-120 866 -66 473 -120 865 -120 873 0 10 -39 13 -200 13 l-200 0 -39 -77z
m229 -680 c22 -188 40 -349 40 -357 0 -14 -27 -16 -225 -16 -124 0 -225 4
-225 8 0 19 364 735 367 722 1 -8 21 -169 43 -357z"/>
<path d="M21081 6818 c-6 -29 -85 -421 -175 -870 l-163 -818 168 0 168 0 10
53 c6 28 85 420 175 870 l163 817 -168 0 -168 0 -10 -52z"/>
<path d="M24217 6863 c-3 -5 -84 -388 -182 -853 -97 -465 -179 -855 -182 -867
l-5 -23 176 0 176 0 6 24 c3 14 30 136 59 272 l53 247 85 84 84 85 60 -113
c33 -63 116 -223 183 -356 l123 -243 204 0 c112 0 203 3 203 8 0 4 -112 212
-250 462 l-250 455 412 412 413 413 -225 0 -225 0 -354 -367 c-195 -203 -358
-369 -362 -371 -4 -2 -3 14 2 36 32 146 139 669 139 684 0 17 -12 18 -169 18
-94 0 -172 -3 -174 -7z"/>
<path d="M9895 6828 c-3 -18 -73 -406 -154 -863 l-147 -830 144 -3 c80 -1 147
0 150 2 2 3 51 262 107 576 56 314 104 572 106 575 2 2 105 -256 229 -573
l226 -577 147 -3 c93 -2 147 1 147 7 0 6 68 389 150 852 83 463 150 848 150
856 0 11 -28 13 -147 11 l-148 -3 -99 -553 c-55 -303 -103 -549 -107 -545 -4
5 -104 253 -223 553 l-214 545 -156 3 -155 3 -6 -33z"/>
<path d="M13545 6838 c-3 -13 -51 -264 -106 -558 -97 -511 -101 -539 -95 -630
11 -177 53 -278 160 -386 128 -128 247 -169 486 -169 143 1 161 3 235 28 222
78 351 237 440 541 19 68 235 1159 235 1190 0 4 -73 5 -162 4 l-162 -3 -107
-555 c-59 -305 -116 -581 -128 -614 -70 -198 -227 -299 -414 -266 -76 14 -122
38 -168 87 -68 70 -84 115 -84 228 1 85 15 177 98 605 53 278 97 508 97 513 0
4 -72 7 -160 7 -157 0 -160 0 -165 -22z"/>
<path d="M22160 6849 c0 -10 -292 -1636 -306 -1702 l-6 -28 153 3 153 3 105
578 c58 317 108 577 111 577 3 0 108 -261 235 -580 l230 -580 147 0 c99 0 148
4 148 11 0 9 292 1635 306 1702 l6 28 -153 -3 -152 -3 -102 -552 c-56 -304
-103 -555 -106 -557 -2 -2 -105 248 -228 555 l-224 559 -158 0 c-111 0 -159
-3 -159 -11z"/>
<path d="M19445 6723 c-15 -71 -97 -454 -184 -853 l-156 -725 529 -3 c291 -1
531 0 534 2 2 3 17 65 33 138 16 73 31 143 34 156 l5 22 -355 0 c-335 0 -356
1 -351 18 3 9 69 312 146 672 78 360 144 665 147 678 l5 22 -180 0 -179 0 -28
-127z"/>
</g>
</svg>
