<?xml version="1.0" standalone="no"?>
<!DOCTYPE svg PUBLIC "-//W3C//DTD SVG 20010904//EN"
 "http://www.w3.org/TR/2001/REC-SVG-20010904/DTD/svg10.dtd">
<svg version="1.0" xmlns="http://www.w3.org/2000/svg"
 width="5000.000000pt" height="1287.000000pt" viewBox="0 0 5000.000000 1287.000000"
 preserveAspectRatio="xMidYMid meet">

<g transform="translate(0.000000,1287.000000) scale(0.100000,-0.100000)"
fill="#000000" stroke="none">
<path d="M3250 12860 c-731 -35 -1355 -216 -1914 -555 -66 -41 -281 -200 -336
-250 -175 -159 -285 -276 -398 -428 -292 -392 -462 -838 -528 -1387 -22 -181
-25 -594 -6 -755 47 -394 147 -718 305 -990 194 -333 490 -621 867 -843 443
-261 960 -442 1845 -648 971 -225 1382 -391 1666 -673 174 -172 261 -348 304
-611 17 -111 20 -356 4 -498 -84 -775 -580 -1174 -1601 -1287 -196 -22 -705
-31 -938 -16 -599 38 -1124 137 -1675 317 -261 86 -508 190 -808 342 -4 2 -7
-335 -7 -750 l0 -753 83 -47 c507 -289 1283 -496 2172 -580 187 -17 930 -18
1120 0 1112 103 1909 423 2480 997 539 541 817 1302 792 2165 -9 286 -35 494
-93 722 -216 862 -807 1433 -1854 1792 -280 97 -596 183 -970 266 -650 144
-1224 338 -1524 514 -397 234 -577 543 -576 992 2 888 519 1380 1550 1474 147
13 539 13 706 0 549 -43 1079 -160 1574 -346 80 -31 175 -69 213 -86 37 -17
70 -29 73 -26 5 6 83 181 114 258 9 25 110 277 224 560 113 283 206 519 206
525 0 30 -400 197 -706 294 -560 178 -1164 281 -1819 311 -240 11 -311 11
-545 0z"/>
<path d="M32320 12864 c-702 -45 -1353 -213 -1940 -502 -598 -294 -1129 -730
-1501 -1232 -464 -625 -756 -1353 -898 -2241 -31 -193 -51 -358 -73 -599 -18
-197 -18 -1078 0 -1295 72 -880 244 -1559 558 -2200 296 -605 734 -1129 1249
-1494 442 -313 893 -524 1445 -675 550 -150 1172 -207 1715 -156 545 51 1018
156 1625 360 l285 96 3 752 c1 414 0 752 -2 752 -2 0 -42 -16 -88 -36 -562
-243 -1090 -386 -1668 -455 -226 -27 -724 -33 -875 -11 -491 72 -904 232
-1275 495 -290 205 -556 498 -753 827 -301 504 -466 1080 -539 1880 -16 178
-16 910 0 1090 91 1008 341 1709 816 2289 81 99 268 282 383 373 362 290 801
483 1299 570 116 21 161 23 439 23 239 0 342 -5 450 -18 401 -52 726 -135
1139 -291 82 -31 150 -55 151 -54 1 2 48 125 104 273 98 255 182 470 341 875
38 96 71 181 72 188 3 14 -206 79 -572 177 -449 120 -890 196 -1300 224 -165
12 -508 20 -590 15z"/>
<path d="M14690 7645 l0 -5045 750 0 750 0 0 4889 c0 3472 -3 4898 -11 4922
-29 92 -87 166 -171 220 -90 58 -98 59 -735 59 l-583 0 0 -5045z"/>
<path d="M35530 11445 l0 -765 755 0 755 0 0 765 0 765 -755 0 -755 0 0 -765z"/>
<path d="M39115 10838 l0 -943 -657 -3 -658 -2 0 -680 0 -680 660 0 660 0 0
-2132 c0 -2327 -2 -2239 56 -2478 56 -226 174 -482 303 -655 239 -319 577
-551 991 -678 155 -48 259 -72 420 -96 698 -105 1559 3 2210 276 58 25 113 47
123 50 9 3 17 12 17 20 0 16 -107 284 -292 733 -74 179 -145 350 -157 381
l-22 57 -97 -35 c-139 -50 -376 -109 -543 -134 -122 -19 -186 -23 -419 -23
-251 -1 -284 1 -380 22 -262 58 -438 161 -554 326 -86 122 -129 248 -146 431
-6 71 -10 794 -10 2023 l0 1912 996 0 c943 0 995 1 990 18 -3 9 -127 314 -275
677 l-269 660 -721 3 -721 2 0 790 c0 764 -1 791 -20 842 -27 72 -84 145 -149
190 -98 69 -91 68 -748 68 l-588 0 0 -942z"/>
<path d="M10450 10059 c-1165 -53 -2064 -559 -2648 -1491 -524 -836 -728
-2033 -536 -3148 112 -654 361 -1253 715 -1721 520 -685 1244 -1096 2139
-1214 559 -74 1201 -21 1691 139 483 158 859 386 1205 731 284 283 469 542
650 912 461 945 562 2190 264 3276 -221 805 -639 1450 -1227 1893 -487 367
-1146 592 -1809 619 -76 3 -168 7 -204 9 -36 1 -144 -1 -240 -5z m473 -1345
c793 -115 1358 -729 1547 -1684 56 -282 65 -392 65 -775 0 -384 -10 -500 -65
-775 -195 -975 -762 -1565 -1599 -1661 -153 -17 -488 -6 -616 20 -144 30 -254
66 -385 128 -619 291 -1004 949 -1102 1883 -16 161 -16 667 0 820 58 527 193
943 417 1280 288 435 700 696 1210 769 107 15 407 12 528 -5z"/>
<path d="M19321 10059 c-518 -29 -1082 -148 -1565 -331 -89 -33 -193 -75 -231
-93 -39 -18 -80 -35 -93 -39 l-22 -7 0 -665 c0 -365 2 -664 4 -664 1 0 52 21
112 46 144 60 453 163 639 213 844 224 1648 250 2162 70 547 -192 830 -595
869 -1236 l7 -112 -954 -4 c-1015 -5 -1039 -6 -1347 -58 -605 -101 -1105 -338
-1464 -692 -151 -149 -256 -288 -356 -475 -127 -236 -202 -469 -249 -772 -25
-162 -25 -624 0 -790 75 -495 263 -928 542 -1249 213 -245 449 -417 775 -564
212 -96 487 -163 802 -197 217 -23 607 -9 858 30 461 72 946 268 1264 510 32
25 67 51 77 59 18 13 19 6 19 -223 l0 -236 755 0 756 0 -4 2502 c-4 2654 -2
2535 -47 2813 -112 690 -408 1222 -880 1581 -479 365 -1098 553 -1925 584
-267 10 -311 10 -504 -1z m1849 -4837 l0 -688 -67 -61 c-193 -172 -401 -314
-637 -433 -244 -123 -453 -194 -701 -236 -138 -24 -435 -24 -565 -1 -455 82
-729 354 -815 807 -19 100 -22 350 -5 455 78 505 436 782 1075 834 55 5 463 9
908 10 l807 1 0 -688z"/>
<path d="M26320 10063 c-426 -9 -861 -78 -1195 -189 -308 -102 -522 -210 -755
-383 -468 -348 -772 -871 -889 -1531 -58 -325 -55 -144 -58 -2863 l-4 -2497
756 0 755 0 0 2403 c0 1622 3 2430 11 2487 61 496 283 829 684 1028 295 146
701 210 1163 184 114 -7 267 -19 340 -27 74 -8 137 -13 142 -10 4 2 10 39 14
82 9 107 61 420 96 581 28 127 109 433 151 571 11 35 18 65 17 66 -7 5 -333
56 -448 70 -163 19 -439 35 -565 33 -55 -1 -152 -3 -215 -5z"/>
<path d="M35530 6245 l0 -3645 755 0 755 0 0 3645 0 3645 -755 0 -755 0 0
-3645z"/>
<path d="M42835 9873 c3 -10 632 -1568 1396 -3462 971 -2405 1389 -3452 1386
-3470 -2 -14 -272 -657 -601 -1429 -328 -771 -596 -1405 -596 -1408 0 -3 305
-3 678 -1 545 2 685 6 717 17 64 22 138 74 168 117 20 29 3997 9630 3997 9650
0 2 -344 3 -764 3 l-763 0 -698 -1727 c-384 -951 -849 -2103 -1034 -2560 -185
-458 -338 -833 -341 -833 -3 0 -460 1152 -1015 2560 l-1008 2560 -765 0 c-724
0 -764 -1 -757 -17z"/>
</g>
</svg>
