<?xml version="1.0" standalone="no"?>
<!DOCTYPE svg PUBLIC "-//W3C//DTD SVG 20010904//EN"
 "http://www.w3.org/TR/2001/REC-SVG-20010904/DTD/svg10.dtd">
<svg version="1.0" xmlns="http://www.w3.org/2000/svg"
 width="2560.000000pt" height="320.000000pt" viewBox="0 0 2560.000000 320.000000"
 preserveAspectRatio="xMidYMid meet">

<g transform="translate(0.000000,320.000000) scale(0.100000,-0.100000)"
fill="#000000" stroke="none">
<path d="M25020 3119 c-1981 -175 -3709 -632 -5200 -1376 -888 -443 -1604
-932 -2242 -1531 l-167 -157 471 -3 471 -2 111 107 c1316 1272 3096 2191 5211
2691 466 110 946 198 1440 262 253 33 215 36 -95 9z"/>
<path d="M8139 1878 c-95 -117 -173 -220 -173 -228 0 -8 134 -199 298 -425
l298 -410 -635 -3 -635 -2 -152 -163 -153 -162 914 -3 914 -3 156 -217 155
-217 347 -3 c219 -1 347 1 347 7 0 8 -1471 2003 -1500 2034 -4 5 -86 -87 -181
-205z"/>
<path d="M619 2010 c-152 -15 -266 -56 -346 -125 -53 -45 -101 -141 -113 -226
-13 -87 -12 -369 1 -449 25 -155 132 -260 324 -317 55 -16 134 -18 993 -21
l932 -3 0 -224 0 -225 -1156 0 -1156 0 6 -27 c25 -105 112 -213 214 -266 143
-75 87 -72 1222 -72 931 0 1021 1 1083 17 94 25 176 68 224 121 88 96 103 159
103 452 0 293 -16 351 -124 453 -61 57 -128 92 -246 125 -74 21 -92 22 -977
25 l-903 3 0 209 0 210 1096 0 1095 0 -7 23 c-13 44 -59 111 -109 161 -62 62
-148 109 -252 138 -77 22 -86 22 -953 24 -481 1 -909 -2 -951 -6z"/>
<path d="M10824 2010 c-232 -25 -394 -137 -438 -301 -15 -58 -17 -128 -14
-699 l3 -635 32 -66 c41 -83 102 -140 196 -184 143 -67 121 -66 1227 -62 1090
3 1038 0 1160 62 91 46 174 163 197 277 l6 28 -1112 0 -1111 0 0 620 0 620
1110 0 c1000 0 1110 2 1110 16 0 34 -56 127 -105 173 -64 60 -149 105 -258
133 -81 22 -93 22 -1007 24 -509 1 -957 -2 -996 -6z"/>
<path d="M3780 1025 l0 -985 295 0 295 0 0 380 0 380 818 0 c495 0 851 4 902
10 307 37 462 168 490 415 23 202 8 380 -41 481 -55 116 -180 214 -329 258
-148 45 -188 46 -1337 46 l-1093 0 0 -985z m2114 645 c78 -12 119 -31 150 -73
19 -26 21 -42 21 -170 0 -159 -11 -194 -72 -230 -56 -32 -201 -38 -923 -35
l-695 3 -3 45 c-2 25 -1 141 3 258 l7 212 722 0 c429 0 749 -4 790 -10z"/>
<path d="M14072 1838 l3 -173 1340 0 1340 0 0 170 0 170 -1343 3 -1342 2 2
-172z"/>
<path d="M17486 2001 c21 -20 1066 -782 1080 -788 8 -3 68 30 136 74 68 44
181 115 251 158 71 43 125 81 120 86 -4 4 -156 114 -337 243 l-330 236 -465 0
c-275 0 -461 -4 -455 -9z"/>
<path d="M14010 695 l0 -655 1328 2 1327 3 0 185 0 185 -1027 3 -1028 2 0 300
0 300 600 0 600 0 0 165 0 165 -900 0 -900 0 0 -655z"/>
<path d="M19676 944 c-146 -102 -376 -276 -376 -284 0 -5 185 -144 412 -309
l411 -301 470 0 470 0 -44 33 c-175 133 -1250 917 -1256 917 -5 -1 -43 -25
-87 -56z"/>
</g>
</svg>
