<?xml version="1.0" standalone="no"?>
<!DOCTYPE svg PUBLIC "-//W3C//DTD SVG 20010904//EN"
 "http://www.w3.org/TR/2001/REC-SVG-20010904/DTD/svg10.dtd">
<svg version="1.0" xmlns="http://www.w3.org/2000/svg"
 width="3000.000000pt" height="2000.000000pt" viewBox="0 0 3000.000000 2000.000000"
 preserveAspectRatio="xMidYMid meet">

<g transform="translate(0.000000,2000.000000) scale(0.100000,-0.100000)"
fill="#000000" stroke="none">
<path d="M3460 14625 l0 -215 198 0 c108 0 204 -5 212 -10 13 -8 16 -109 20
-772 l5 -763 250 0 250 0 3 756 c2 688 4 758 19 770 12 10 66 15 207 19 l191
5 3 190 c1 105 0 200 -3 213 l-5 22 -675 0 -675 0 0 -215z"/>
<path d="M5078 14829 c-17 -9 -18 -67 -18 -978 0 -810 2 -970 14 -980 9 -8 85
-11 252 -9 l239 3 3 391 c2 349 4 393 19 405 13 11 84 14 357 14 188 0 349 -3
359 -7 16 -7 17 -35 17 -391 0 -291 3 -387 13 -400 11 -16 35 -17 251 -15
l240 3 8 32 c5 18 7 456 6 973 -3 919 -3 942 -22 956 -31 22 -458 20 -480 -2
-14 -13 -16 -61 -16 -374 0 -345 -1 -360 -19 -370 -13 -6 -144 -10 -359 -10
-316 0 -340 1 -355 18 -15 17 -17 56 -17 360 0 197 -4 352 -10 366 l-10 26
-227 0 c-136 0 -235 -5 -245 -11z"/>
<path d="M7278 14829 c-17 -9 -18 -66 -18 -977 0 -592 4 -973 10 -982 8 -13
80 -15 550 -15 470 0 542 2 550 15 5 8 10 101 10 207 0 180 -1 193 -19 203
-12 6 -124 10 -293 10 -200 0 -277 3 -286 12 -8 8 -12 59 -12 165 0 140 2 153
19 163 12 6 119 10 278 10 188 0 262 3 271 12 9 9 12 68 12 205 0 180 -1 193
-19 203 -12 6 -119 10 -278 10 -188 0 -262 3 -271 12 -15 15 -17 285 -2 308 8
13 56 16 302 20 l293 5 3 190 c1 105 0 200 -3 213 l-5 22 -538 0 c-346 -1
-543 -4 -554 -11z"/>
<path d="M9060 12180 c-493 -32 -946 -197 -1280 -467 -89 -72 -253 -240 -332
-339 -305 -384 -453 -838 -435 -1334 23 -603 221 -1064 624 -1452 372 -357
855 -559 1424 -597 201 -13 567 26 794 84 768 199 1367 827 1514 1585 46 241
53 532 16 750 -90 544 -370 1022 -773 1325 -413 310 -1006 480 -1552 445z"/>
<path d="M24255 12174 c-310 -33 -550 -98 -800 -219 -588 -284 -930 -770
-1057 -1501 -30 -174 -32 -540 -4 -709 106 -641 395 -1114 871 -1425 182 -119
479 -235 725 -284 400 -80 840 -51 1240 81 141 46 383 167 500 250 122 86 345
310 433 433 77 108 203 357 242 475 40 122 72 259 90 380 9 61 22 153 31 205
9 58 14 165 14 278 l0 182 -1022 -2 -1023 -3 0 -390 0 -390 30 -6 c17 -4 202
-7 413 -8 439 -1 407 7 378 -100 -70 -268 -267 -450 -555 -511 -180 -38 -403
-34 -578 11 -378 96 -642 424 -714 884 -19 118 -17 430 4 540 89 489 351 806
757 917 73 20 108 23 250 22 138 0 178 -4 245 -22 258 -71 443 -229 573 -488
47 -94 42 -93 184 -35 405 164 803 332 816 345 13 13 10 24 -27 93 -302 562
-779 888 -1432 978 -109 15 -499 28 -584 19z"/>
<path d="M3582 12058 c-9 -9 -12 -460 -12 -1970 l0 -1958 24 -16 c22 -14 114
-15 938 -11 779 3 928 6 1015 20 345 55 567 157 753 347 195 198 293 451 293
760 1 321 -66 529 -226 696 -116 122 -246 197 -455 260 -48 14 -91 30 -95 34
-5 4 24 34 65 67 120 98 185 177 246 298 101 201 122 534 51 809 -97 378 -403
617 -851 666 -145 15 -1730 14 -1746 -2z m1405 -794 c129 -33 205 -91 255
-192 31 -62 33 -74 33 -167 0 -192 -75 -306 -235 -356 -85 -26 -402 -48 -425
-29 -13 11 -15 59 -15 369 0 270 3 361 13 374 22 30 261 30 374 1z m148 -1539
c207 -36 322 -101 381 -216 76 -151 43 -372 -69 -463 -129 -104 -269 -133
-677 -139 l-165 -2 -3 410 c-2 382 -1 411 15 424 24 18 391 8 518 -14z"/>
<path d="M12083 12059 c-10 -10 -13 -419 -13 -1976 l0 -1963 26 -10 c15 -6
215 -10 499 -10 417 0 475 2 489 16 14 14 16 95 16 746 l0 730 21 -14 c12 -7
223 -326 469 -708 246 -382 461 -711 478 -730 l30 -35 584 -3 c551 -3 668 0
668 16 0 4 -273 362 -606 795 -362 471 -604 795 -602 805 2 11 34 27 101 49
383 124 603 354 702 734 37 141 46 398 20 564 -80 517 -414 862 -945 978 -91
20 -129 21 -1010 24 -723 3 -918 1 -927 -8z m1466 -808 c209 -53 326 -167 366
-356 19 -89 19 -153 0 -233 -20 -86 -48 -136 -111 -202 -60 -64 -132 -103
-226 -125 -74 -17 -339 -38 -418 -33 l-55 3 -3 474 c-2 364 1 477 10 489 19
23 325 11 437 -17z"/>
<path d="M15817 12063 c-3 -5 -7 -891 -8 -1970 -3 -1600 -2 -1964 9 -1975 10
-10 116 -14 497 -16 475 -3 485 -2 505 18 20 20 20 24 20 1966 0 1322 -3 1952
-10 1965 -10 18 -27 19 -510 19 -274 0 -501 -3 -503 -7z"/>
<path d="M17680 12044 c-7 -17 -9 -714 -8 -1969 3 -1579 5 -1946 16 -1957 17
-17 943 -25 986 -9 l26 11 0 1169 c0 736 4 1179 10 1195 13 35 24 33 48 -7 21
-36 49 -72 1133 -1453 572 -728 714 -904 740 -913 22 -7 181 -11 498 -11 406
0 469 2 489 16 l22 15 0 1958 c0 1642 -2 1960 -14 1970 -9 8 -151 10 -507 9
l-494 -3 -5 -1190 c-3 -654 -9 -1196 -13 -1202 -12 -19 -20 -16 -39 16 -26 47
-1796 2302 -1839 2344 l-38 37 -501 0 -500 0 -10 -26z"/>
<path d="M12360 7250 c-204 -24 -420 -121 -581 -262 -144 -125 -265 -321 -316
-513 -23 -88 -26 -119 -26 -255 0 -136 3 -167 26 -255 52 -193 184 -418 315
-535 167 -150 363 -234 609 -262 127 -15 233 -3 401 43 174 49 162 22 162 354
0 166 -4 275 -9 275 -6 0 -41 -23 -78 -52 -37 -28 -90 -62 -118 -74 -216 -99
-453 -59 -615 105 -109 110 -163 240 -163 396 0 153 48 262 167 381 141 141
289 194 450 161 89 -18 215 -77 294 -137 29 -22 57 -40 62 -40 15 0 13 522 -1
554 -19 42 -188 97 -354 116 -100 11 -130 11 -225 0z"/>
<path d="M14220 7253 c-289 -31 -526 -136 -700 -312 -352 -354 -396 -904 -108
-1335 61 -90 201 -223 296 -280 218 -130 517 -189 770 -152 342 51 594 198
763 447 193 284 230 687 94 1011 -170 403 -651 671 -1115 621z m196 -503 c372
-66 568 -445 407 -788 -32 -70 -156 -195 -230 -235 -70 -37 -192 -67 -273 -67
-82 0 -204 30 -273 67 -80 44 -179 143 -221 222 -116 221 -78 472 98 646 134
132 308 187 492 155z"/>
<path d="M16006 7178 c-9 -14 -77 -390 -166 -913 -83 -489 -156 -918 -162
-952 -17 -99 -33 -93 242 -93 240 0 240 0 250 23 5 12 39 222 75 467 91 621
92 627 115 604 5 -5 100 -241 210 -524 110 -283 206 -526 213 -540 12 -23 18
-25 103 -28 79 -2 92 0 108 17 18 20 31 50 281 661 87 212 163 393 170 403 13
18 14 18 25 -3 6 -12 45 -250 87 -529 45 -305 80 -515 89 -528 14 -23 17 -23
250 -23 203 0 235 2 241 16 7 19 10 2 -142 889 -68 396 -136 794 -151 884 -15
90 -34 170 -42 177 -11 11 -62 14 -246 14 -212 0 -234 -2 -249 -18 -9 -10 -90
-216 -181 -458 -211 -565 -207 -554 -220 -554 -7 0 -95 222 -197 493 -113 303
-192 501 -206 515 -22 22 -27 22 -252 22 -228 0 -231 0 -245 -22z"/>
<path d="M18493 7189 c-19 -19 -19 -1927 0 -1952 11 -16 35 -17 252 -15 l240
3 5 311 c4 232 8 315 18 326 11 13 51 17 240 21 245 5 325 18 429 71 210 106
325 337 310 621 -8 134 -27 217 -73 313 -69 142 -182 226 -381 279 l-98 27
-465 4 c-366 3 -468 1 -477 -9z m812 -421 c52 -13 119 -80 134 -133 18 -65 14
-170 -8 -214 -49 -95 -132 -131 -307 -131 -104 0 -114 2 -124 20 -7 14 -10 95
-8 241 2 182 6 222 18 230 18 12 236 3 295 -13z"/>
<path d="M20731 7183 c-14 -12 -91 -202 -230 -568 -115 -302 -279 -734 -365
-960 -86 -225 -154 -415 -152 -422 8 -21 509 -19 529 2 9 8 30 59 47 112 64
193 68 201 103 212 19 6 166 9 365 8 315 -2 334 -3 347 -21 8 -10 35 -81 60
-156 25 -76 54 -145 64 -154 15 -14 52 -16 270 -16 204 0 253 3 257 14 3 7
-36 121 -86 252 -51 132 -216 563 -367 959 -150 396 -281 727 -290 737 -15 16
-39 18 -273 18 -231 0 -260 -2 -279 -17z m316 -680 c179 -507 185 -524 173
-539 -18 -21 -412 -21 -430 0 -9 12 8 71 89 300 94 267 118 326 132 326 3 0
19 -39 36 -87z"/>
<path d="M22289 7183 c-12 -13 -14 -176 -15 -961 -1 -519 1 -956 5 -971 l7
-26 242 -3 242 -2 10 25 c6 16 10 247 10 596 0 313 3 569 8 569 9 0 26 -21
492 -615 215 -275 407 -517 427 -538 l35 -37 247 2 246 3 3 974 c1 711 -1 977
-9 987 -9 11 -60 14 -245 14 -128 0 -235 -3 -237 -7 -3 -5 -8 -271 -12 -593
-4 -322 -9 -587 -12 -590 -2 -3 -12 5 -21 16 -9 12 -216 274 -460 583 -270
342 -454 567 -472 576 -23 12 -73 15 -253 15 -197 0 -226 -2 -238 -17z"/>
<path d="M24450 7193 c0 -14 35 -66 355 -523 175 -250 325 -471 333 -490 12
-29 16 -117 21 -495 l6 -460 243 -3 242 -2 10 25 c6 16 10 202 10 465 0 241 4
449 9 462 8 20 127 193 579 836 67 96 122 178 122 183 0 5 -124 9 -289 9 -286
0 -290 0 -315 -22 -15 -13 -97 -129 -184 -258 -117 -176 -162 -235 -177 -235
-15 0 -62 62 -186 244 -91 134 -174 250 -184 257 -15 11 -79 14 -307 14 -158
0 -288 -3 -288 -7z"/>
</g>
</svg>
